<?xml version="1.0" encoding="UTF-8"?>
<svg id="_레이어_1" data-name=" 레이어 1" xmlns="http://www.w3.org/2000/svg" xmlns:xlink="http://www.w3.org/1999/xlink" viewBox="0 0 195.01 195.01">
  <defs>
    <style>
      .cls-1, .cls-2, .cls-3 {
        fill: none;
      }

      .cls-2 {
        clip-path: url(#clippath-1);
      }

      .cls-4 {
        fill: #fff;
      }

      .cls-5 {
        fill: #ccc;
      }

      .cls-6 {
        fill: #171a3b;
      }

      .cls-3 {
        clip-path: url(#clippath);
      }
    </style>
    <clipPath id="clippath">
      <rect class="cls-1" x="30.55" y="64.49" width="13.38" height="57.98"/>
    </clipPath>
    <clipPath id="clippath-1">
      <rect class="cls-1" x="65.12" y="64.49" width="13.38" height="57.98"/>
    </clipPath>
  </defs>
  <rect class="cls-6" width="195.01" height="195.01"/>
  <g>
    <path class="cls-4" d="m85.08,89.41h13.59c5,0,11.57,2.03,11.43,10.67l-.05,10.85c0,7.92-6.71,11.25-12.15,11.25h-12.83v-32.77h.01Zm19.31,12.33c0-4.1-1.76-5.9-6.75-5.9h-5.31v19.22h5.72c3.24,0,6.35-1.12,6.35-5.18v-8.15h-.01Z"/>
    <path class="cls-4" d="m120.15,89.48v21.56c0,1.62.72,3.96,3.78,3.96h4.5c3.01,0,4.01-2.25,4.01-4.23v-21.29h7.25v22.87c0,6.84-4.73,9.72-10.22,9.72h-5.99c-6.53,0-10.98-4.41-10.62-10.62v-21.97s7.29,0,7.29,0Z"/>
    <path class="cls-4" d="m152.74,121.87c-4.01,0-9.86-2.25-9.86-8.96v-14.09c0-5.9,4.91-9.77,10.67-9.77h4.59c5.94,0,10.26,3.87,10.26,9.72v14.27c0,5.31-5,8.82-9,8.82h-6.66,0Zm4.23-5.4c2.88,0,4.77-1.58,4.77-4.46v-12.74c0-2.3-1.53-4.23-4.73-4.23h-2.52c-3.24,0-4.95,2.03-4.95,4.28v12.69c0,2.48,1.22,4.46,4.59,4.46h2.84Z"/>
  </g>
  <g>
    <rect class="cls-4" x="30.55" y="64.49" width="13.38" height="57.98"/>
    <g class="cls-3">
      <path class="cls-5" d="m34.47,92.9c0,8.78,6.34,16.71,15.9,16.71s17.43-7.93,17.43-16.71-7.67-16.56-17.22-16.56-16.11,7.78-16.11,16.56Zm7.6,0c0-4.07,3.59-7.36,8.01-7.36s8.01,3.29,8.01,7.36-3.59,7.36-8.01,7.36c-4.42,0-8.01-3.29-8.01-7.36Z"/>
    </g>
  </g>
  <g>
    <rect class="cls-4" x="65.12" y="64.49" width="13.38" height="57.98"/>
    <g class="cls-2">
      <path class="cls-5" d="m58.47,76.34c-9.55,0-17.22,7.78-17.22,16.56s7.87,16.71,17.43,16.71,15.9-7.93,15.9-16.71-6.56-16.56-16.11-16.56Zm.5,23.92c-4.42,0-8.01-3.29-8.01-7.36s3.59-7.36,8.01-7.36,8.01,3.29,8.01,7.36-3.59,7.36-8.01,7.36Z"/>
    </g>
  </g>
  <path class="cls-4" d="m54.51,77c-9.55,0-17.3,7.12-17.3,15.89s7.75,15.89,17.3,15.89,17.3-7.12,17.3-15.89-7.75-15.89-17.3-15.89Zm.41,23.25c-4.42,0-8.01-3.29-8.01-7.36s3.59-7.36,8.01-7.36,8.01,3.29,8.01,7.36-3.59,7.36-8.01,7.36Z"/>
</svg>